<?xml version="1.0" encoding="utf-8"?>
<!-- Generator: Adobe Illustrator 23.0.0, SVG Export Plug-In . SVG Version: 6.00 Build 0)  -->
<svg version="1.1" xmlns="http://www.w3.org/2000/svg" xmlns:xlink="http://www.w3.org/1999/xlink" x="0px" y="0px"
	 viewBox="0 0 841.89 595.28" style="enable-background:new 0 0 841.89 595.28;" xml:space="preserve">
<style type="text/css">
	.st0{fill-rule:evenodd;clip-rule:evenodd;fill:#ABCD03;}
	.st1{fill-rule:evenodd;clip-rule:evenodd;fill:url(#SVGID_1_);}
	.st2{fill-rule:evenodd;clip-rule:evenodd;fill:url(#SVGID_2_);}
	.st3{fill-rule:evenodd;clip-rule:evenodd;fill:url(#SVGID_3_);}
</style>
<g id="_x37C_">
	<polygon class="st0" points="409.41,204.6 431.3,198.56 431.3,159.52 409.41,165.52 387.53,159.68 387.53,198.56 	"/>
	<linearGradient id="SVGID_1_" gradientUnits="userSpaceOnUse" x1="341.6328" y1="263.68" x2="495.0574" y2="263.665">
		<stop  offset="0" style="stop-color:#1D2088"/>
		<stop  offset="0.34" style="stop-color:#006DB8"/>
		<stop  offset="0.45" style="stop-color:#008CD6"/>
		<stop  offset="0.56" style="stop-color:#0072BB"/>
		<stop  offset="1" style="stop-color:#1D2088"/>
	</linearGradient>
	<path class="st1" d="M409.41,225.46l21.88-6.03v40.63l40.9,14.86c0.1,36.06-22.89,34.21-31.73,31.34c1.68,0.57,3.32,1.12,4.93,1.65
		h-0.01c-20.94-6.82-15.14-4.84-35.98-11.92c-20.84,7.09-10.12,3.46-31.06,10.28c-8.84,2.87-31.82,4.71-31.73-31.33l0-0.01
		l40.9-14.86v-40.63L409.41,225.46z"/>
	<linearGradient id="SVGID_2_" gradientUnits="userSpaceOnUse" x1="478.2133" y1="322.2339" x2="478.2123" y2="188.4353">
		<stop  offset="0" style="stop-color:#004A9F"/>
		<stop  offset="1" style="stop-color:#00A0E9"/>
	</linearGradient>
	<path class="st2" d="M515.96,290.83V145.18l-43.77,11.96v117.78c0.1,36.06-22.89,34.21-31.73,31.34
		C498.97,326.23,515.96,317.39,515.96,290.83z"/>
	<linearGradient id="SVGID_3_" gradientUnits="userSpaceOnUse" x1="340.6116" y1="322.2339" x2="340.6125" y2="188.4353">
		<stop  offset="0" style="stop-color:#004A9F"/>
		<stop  offset="1" style="stop-color:#00A0E9"/>
	</linearGradient>
	<path class="st3" d="M302.87,290.83V145.18l43.77,11.96v117.78c-0.1,36.06,22.89,34.21,31.73,31.34
		C319.85,326.23,302.87,317.39,302.87,290.83z"/>
</g>
<g id="_x37C__1_">
</g>
</svg>
