<?xml version="1.0" encoding="utf-8"?>
<!-- Generator: Adobe Illustrator 23.0.0, SVG Export Plug-In . SVG Version: 6.00 Build 0)  -->
<svg version="1.1" id="图层_1" xmlns="http://www.w3.org/2000/svg" xmlns:xlink="http://www.w3.org/1999/xlink" x="0px" y="0px"
	 viewBox="0 0 750 894" style="enable-background:new 0 0 750 894;" xml:space="preserve">
<style type="text/css">
	.st0{fill:#F5EEFA;}
	.st1{fill:#5234D1;}
	.st2{fill:#AD9CE8;}
	.st3{fill:#0C63FA;}
</style>
<path class="st0" d="M3088.04,2084.71c-0.03,11.67,0.23,21.45-3.04,31.01c-1.6,4.67-1.94,9.78-2.18,14.79
	c-0.22,4.5-0.7,8.99-3.54,12.81c-0.48,0.65-0.96,1.5-0.97,2.27c-0.17,8.43-4.9,15.45-7.72,22.94c-1.99,5.29-3.97,11.07-7.93,15.71
	c-2.75,3.22-4.03,7.48-6.22,11.18c-10.85,18.35-25.31,33.56-41,47.53c-10.68,9.5-22.73,17.33-35.38,24.36
	c-9.87,5.48-20.63,8.73-30.38,14.27c-1.51,0.86-3.51,0.96-5.31,1.21c-3.82,0.53-7.55,1.2-10.83,3.48c-0.93,0.65-2.1,1.09-3.22,1.28
	c-25.1,4.25-50.24,9.36-75.79,5c-9.81-1.68-20.15-2.16-29.3-5.5c-7.85-2.87-16.47-3.39-23.86-8.17c-3.96-2.56-9.07-3.74-13.63-5.66
	c-13-5.46-23.79-14.08-35.32-21.8c-13.9-9.3-24.7-21.56-36.05-33.42c-9.04-9.44-15.62-20.51-22.33-31.62
	c-5.67-9.39-10.22-19.32-13.76-29.46c-2.85-8.17-6.48-16.32-7.33-25.21c-1.3-13.56-5.52-26.66-5.67-40.48
	c-0.18-15.96,2.3-31.45,5.17-47.03c2.11-11.47,6.25-22.16,9.96-33.1c3.49-10.31,8.41-19.89,13.94-28.94
	c6.82-11.16,13.49-22.54,23.97-31.34c6.37-5.35,12.51-11.52,17.7-18.28c4.64-6.04,11.07-9.91,17.07-14.19
	c8.04-5.73,16.56-10.82,25.06-15.87c3.81-2.26,8.17-3.92,12.22-5.31c6.71-2.31,13.27-5.16,19.84-7.69
	c11.84-4.56,24.37-4.99,36.38-8.2c3.99-1.07,8.19-1.81,12.31-1.89c17.95-0.36,35.78-0.83,53.7,2.99c11.19,2.39,22.37,4.96,33.2,8.32
	c6.43,2,13.13,4.34,19.17,7.92c4.53,2.69,9.51,4.53,14.16,7.14c18.68,10.48,35.83,22.8,49.38,39.53c3.61,4.45,7.49,8.54,11.4,12.68
	c2.22,2.35,3.36,5.56,5.23,8.28c4.8,6.96,9.62,13.93,13.72,21.41c4.57,8.33,8.68,16.89,13.37,25.13c0.93,1.63,1.64,3.28,2,5.06
	c2.4,11.78,6.5,23.07,8.31,35.13C3086.22,2064.16,3088.47,2075.18,3088.04,2084.71z M2983.47,2126.59c0.11-0.54,0.22-1.09,0.33-1.63
	c3.57-5.42,5.91-11.1,6.36-17.82c0.69-10.5,0.31-20.98,0.46-31.47c0.11-8.1-1.71-10.3-9.74-10.37c-20.49-0.19-40.99-0.12-61.48,0.06
	c-6.67,0.06-9.05,2.62-8.84,9.29c0.34,10.65,0.55,21.3-0.67,31.88c-1.23,10.71-8.2,16.86-17.76,20.6c-1.38,0.54-2.85,1.04-4,1.92
	c-5.54,4.21-12.4,4.6-17.47,1.6c-5.1-3.02-11.47-3.38-15.71-8.66c-4.2-5.23-9.35-9.5-9.31-16.94c0.02-3.16,0.13-6.37-0.3-9.48
	c-1.03-7.47,0.77-14.95-0.35-22.39c-0.85-5.69-2.86-7.83-8.41-7.86c-21.66-0.12-43.32-0.01-64.98-0.01c-4.33,0-6.37,1.94-6.33,6.4
	c0.13,12.99-0.19,26,0.24,38.98c0.3,8.92,4.36,17.21,7.06,25.47c2.05,6.26,4.53,13.21,9.24,18.8c4.97,5.9,8.59,12.96,14.15,18.4
	c5.38,5.25,10.38,11.1,17.26,14.53c5.65,2.81,9.66,8.59,16.6,9.06c0.76,0.05,1.71,0.51,2.18,1.09c2.96,3.65,7.24,3.75,11.33,4.36
	c1.97,0.29,4.1,0.17,5.66,1.63c3.04,2.86,6.81,3.4,10.67,3.43c12.49,0.08,24.99,0.05,37.49,0.02c3.03-0.01,6.09-0.29,8.43-2.48
	c1.97-1.84,4.29-2.25,6.83-2.57c3.41-0.44,7.33,0.07,9.96-2.56c4.36-4.36,10.54-5.13,15.48-8.74c6.75-4.94,13.84-9.33,19.36-15.7
	c4.66-5.38,8.84-11.17,13.22-16.76c6.49-8.28,8.95-18.15,13.36-27.23C2984.53,2129.96,2984.24,2128.17,2983.47,2126.59z
	 M2951.02,1967.78c-21.68,2.36-37.82,14.36-37.72,37.54c0.09,20.74,13.99,36.47,38.9,37.5c18.98,0.78,38.63-18.27,37.46-36.99
	C2988.29,1983.62,2974.28,1969.68,2951.02,1967.78z M2766.57,2005.4c0.97,19.42,15.63,37.47,37.84,36.82
	c24.22-0.71,38.61-12.64,38.05-36.75c-0.51-22.28-15.29-36.95-37.65-37.21C2782.86,1968.02,2768.39,1983.22,2766.57,2005.4z"/>
<path class="st1" d="M2983.8,2124.96c-0.11,0.54-0.22,1.09-0.33,1.63c-5.95,5.76-6.61,14.2-10.52,21.1
	c-5.67,10.01-12.54,18.8-20.75,26.5c-10.08,9.44-21.73,16.35-34.85,21.36c-12.91,4.93-26.16,6.74-39.58,8.47
	c-8.06,1.04-15.31-3.42-23.02-3.64c-9.05-0.26-16.67-4.61-24.38-7.81c-9.95-4.13-18.97-10.75-26.75-18.6
	c-8.19-8.27-15.51-17-20.83-27.61c-3.57-7.12-7.35-14.23-8.97-21.84c-3.52-16.52-3.22-33.43-2.89-50.27
	c0.08-3.9,1.74-5.96,5.68-5.97c18.99-0.02,37.99-0.01,56.98-0.02c2.82,0,4.2,1.32,4.59,4.13c0.75,5.48,0.53,10.98,0.49,16.47
	c-0.06,8.85,0.07,17.46,4.97,25.52c5.68,9.33,13.11,17.14,23.52,19.31c9.96,2.07,20.43,2.6,30.32-3.74
	c11.95-7.66,18.17-18.21,19.53-31.73c0.82-8.09,0.22-16.31,0.29-24.48c0.02-2.92,0.74-5.43,4.36-5.43
	c19.49-0.01,38.99-0.03,58.48,0.04c3.55,0.01,5.62,1.89,5.53,5.62c-0.31,12.46,0.9,24.95-1.38,37.39
	C2983.49,2115.74,2981.76,2120.36,2983.8,2124.96z"/>
<path class="st2" d="M2951.02,1967.78c23.26,1.9,37.27,15.84,38.65,38.06c1.16,18.72-18.48,37.77-37.46,36.99
	c-24.91-1.03-38.81-16.76-38.9-37.5C2913.2,1982.14,2929.34,1970.14,2951.02,1967.78z M2951.11,2038.23
	c18.77,1.98,33.69-14.06,33.67-33.31c-0.02-16.83-14.07-32.05-32.75-32.67c-18.59-0.62-34.32,17.33-34.83,32.13
	C2916.62,2021.38,2934.18,2041.24,2951.11,2038.23z"/>
<path class="st2" d="M2766.57,2005.4c1.82-22.18,16.29-37.39,38.24-37.14c22.36,0.26,37.14,14.93,37.65,37.21
	c0.55,24.11-13.83,36.04-38.05,36.75C2782.2,2042.87,2767.54,2024.82,2766.57,2005.4z M2804.06,2038.26
	c19.54,0.05,33.78-13.98,34.8-32.36c0.94-17-14.59-34.26-34.46-33.85c-19.15,0.39-33.18,14.92-33.44,33.22
	C2770.72,2022.37,2784.99,2040.18,2804.06,2038.26z"/>
<path class="st1" d="M2951.11,2038.23c-16.93,3.01-34.49-16.85-33.9-33.85c0.51-14.8,16.23-32.75,34.83-32.13
	c18.68,0.62,32.73,15.84,32.75,32.67C2984.8,2024.17,2969.88,2040.21,2951.11,2038.23z"/>
<path class="st1" d="M2804.06,2038.26c-19.06,1.93-33.34-15.89-33.1-32.99c0.26-18.3,14.29-32.83,33.44-33.22
	c19.87-0.41,35.4,16.85,34.46,33.85C2837.84,2024.28,2823.6,2038.31,2804.06,2038.26z"/>
<g>
	<g>
		<g>
			<g>
				<path class="st3" d="M434.2,475.86c39.91-9.78,70.84-31.32,89.73-68.66c0.78-1.55,3.07-2.88,4.88-3.27
					c25.13-5.54,38.4-22.47,37.44-47.87c-0.47-12.57-6.13-21.6-17.85-26.38c-2.94-1.2-3.46-2.75-3.23-5.62
					c2.54-31.78-1.51-62.79-11.28-93.07c-15.87-49.14-48.06-81.17-98.77-93.5c-7.87-1.91-15.91-3.12-23.81-4.64
					c-2.51-13.49-9.98-21.16-21.07-21.78c-11.88-0.67-19.19,6.03-23.79,21.51c-10.29,2.22-20.51,3.83-30.4,6.65
					c-36.49,10.43-65.6,30.68-83.03,65.28c-18.79,37.31-23.5,77.35-21.39,118.49c0.2,3.96-0.59,5.75-4.34,7.4
					c-8.42,3.7-13.58,10.4-15.44,19.56c-5.02,24.72,8.68,46.82,33.16,52.93c3.86,0.96,6.22,2.57,8.06,6.24
					c7.48,14.92,17.67,27.78,30.73,38.27c3.44,2.76,6.99,5.37,10.86,8.35c-3.05,1.35-5.55,2.69-8.21,3.58
					c-10.91,3.66-18.93,10.92-25.32,20.17c-1.66,2.4-3.46,3.41-6.46,3.65c-12.54,0.98-19.29,8.75-18.59,21.27
					c0.21,3.62,1.38,7.17,1.86,10.79c1.19,8.85-0.34,17.12-6.54,24.41c14.03,1.12,25.66-5.31,30.23-18.34
					c3.02-8.62,4.26-18.09,4.85-27.27c0.72-11.15,6.97-20.86,17.54-24.69c5.61-2.03,10.99-4.68,16.61-6.65
					c1.88-0.66,4.39-0.64,6.27,0.03c11.1,3.95,21.96,8.59,33.17,12.19c9.26,2.98,18.88,4.83,29.42,7.45
					c-39.84,7.79-69.66,28.37-88.12,63.61c-4.36,8.33-8.83,11-17.63,10.29c-11.05-0.9-20.59,3.51-28.09,11.66
					c-6.91,7.51-10.13,16.44-9.44,27.25c22.04,0,43.58,0,65.35,0c-3.83,14.92-0.33,27.14,12.13,35.62
					c10.58,7.2,22.11,7.37,32.91,0.38c13.09-8.48,16.56-20.97,12.83-35.89c25.1,0,49.99,0,74.96,0
					c-6.28,24.96,11.59,39.58,26.61,40.63c8.92,0.62,16.83-2.07,23.29-8.28c9.37-9,11.37-20.1,8.02-32.89c22.59,0,44.5,0,66.37,0
					c0.71-12.4-4.6-23.73-13.94-31.01c-8.7-6.78-18.7-8.27-29.26-7.59c-3.43,0.22-5.2-0.82-6.72-4.17
					c-9.38-20.65-23.61-37.3-42.37-50.06c-14.61-9.94-30.73-16.18-49.22-19.44c1.77-0.7,2.46-1.09,3.2-1.25
					C418.32,479.39,426.3,477.8,434.2,475.86z M544.97,339.02c5.65,1.93,9.83,6.17,10.8,12.46c2.69,17.52-2.29,34.82-24.24,41.25
					C536.01,374.85,540.46,357.06,544.97,339.02z M221.04,363.23c-0.97-13.53,2.24-20.35,10.83-23.78
					c4.06,17.45,8.14,34.97,12.25,52.6C231.2,388.76,222.06,377.47,221.04,363.23z M255.01,261.39
					c2.73-15.63,7.31-30.71,14.21-45.04c15.68-32.58,42.73-50.73,76.8-59.09c13.18-3.23,26.95-6.11,40.39-5.84
					c34.63,0.68,67.91,7.22,95.1,31.28c17.55,15.53,27.44,35.69,34.45,57.52c4.63,14.43,7.45,29.23,8.92,44.13
					c-20.54-5.35-40.34-11.02-60.4-15.62c-28.75-6.59-57.84-11.08-87.5-9.38c-31.48,1.8-62.24,7.89-92.59,16.17
					c-10.69,2.92-21.23,6.39-32.87,9.91C252.73,277.02,253.65,269.17,255.01,261.39z M328,612.79c-0.72,0.75-1.55,1.39-2.46,1.9
					c-1.51,0.85-3.25,1.35-5.08,1.34c-1.77,0-3.45-0.47-4.93-1.29c-0.59-0.33-1.15-0.71-1.67-1.14c-2.34-1.93-3.87-4.83-3.9-8.01
					c-0.02-2.01,0.57-3.92,1.58-5.54c0.4-0.65,0.86-1.26,1.39-1.8c0.01-0.01,0.03-0.03,0.04-0.05c0.93-0.96,2.04-1.75,3.27-2.31
					c0.01,0,0.01-0.01,0.02-0.01c1.24-0.56,2.59-0.88,4.01-0.91c5.67-0.12,10.56,4.51,10.75,10.18
					C331.1,608.07,329.93,610.8,328,612.79z M461.66,612.04c-0.63,0.79-1.38,1.49-2.21,2.07c-1.65,1.17-3.64,1.88-5.76,1.92
					c-5.66,0.12-10.56-4.54-10.74-10.19c-0.01-0.37,0-0.73,0.02-1.09c0.05-0.72,0.18-1.42,0.38-2.09c0.37-1.26,0.97-2.42,1.75-3.45
					c0.27-0.35,0.55-0.69,0.85-1.01c1.93-1.99,4.61-3.24,7.54-3.23c4.24,0.01,8,2.7,9.63,6.43c0.14,0.31,0.26,0.63,0.36,0.95
					c0.32,0.97,0.49,2,0.5,3.06C464.03,607.88,463.14,610.2,461.66,612.04z M445.58,518.43c3.35,2.28,6.56,4.75,9.62,7.43
					s5.98,5.54,8.72,8.59c0.91,1.02,1.81,2.05,2.69,3.11c6.13,7.4,11.31,15.77,15.31,24.98c1.71,3.95,3.21,8.05,4.47,12.3
					c-65.29,0-130.51,0-195.79,0c4.79-16.32,13.23-30.73,24.3-42.39c0.92-0.97,1.86-1.92,2.82-2.86c2.88-2.8,5.92-5.42,9.1-7.86
					c1.06-0.81,2.14-1.6,3.23-2.37c16.39-11.53,36.25-18.21,57.65-18.39c1.37-0.01,2.74,0.01,4.1,0.05
					C411.39,501.62,429.93,507.79,445.58,518.43z M388.83,461.85c-21.43-0.83-42.16-4.16-62.08-12.08
					c-34.91-13.88-56.04-39.91-66.55-75.34c-6-20.24-8.78-40.95-9.31-62.01c-0.08-3.1,0.83-4.6,3.85-5.82
					c23.19-9.36,47.39-15.1,71.77-20.14c29.84-6.17,59.97-8.18,90.35-5.19c30.42,2.99,59.81,10.59,88.72,20.24
					c5.83,1.95,11.67,3.89,17.38,6.16c1.29,0.51,2.94,2.41,2.9,3.63c-1.18,37.37-8.2,73.22-30.6,104.21
					c-17.84,24.68-43.45,37.12-72.77,42.39C411.4,459.89,400.06,460.57,388.83,461.85z"/>
			</g>
		</g>
		<g>
			<path class="st3" d="M305.86,324.06c-7.6,0.07-13.89,6.48-13.82,14.07c0.07,7.63,6.44,13.89,14.06,13.82
				c7.63-0.07,13.89-6.44,13.82-14.05C319.85,330.29,313.44,323.99,305.86,324.06z"/>
		</g>
		<g>
			<path class="st3" d="M470.21,351.94c7.62-0.13,13.84-6.56,13.71-14.17c-0.13-7.58-6.61-13.84-14.18-13.71
				c-7.58,0.13-13.84,6.61-13.71,14.18C456.17,345.86,462.6,352.07,470.21,351.94z"/>
		</g>
		<g>
			<g>
				<path class="st3" d="M371.92,239.93c11.32,0.07,22.65,0.06,33.97,0c11.73-0.06,19-7.6,19.04-19.62
					c0.03-12.5-7.08-20.14-18.91-20.25c-4.26-0.04-8.53-0.01-12.93-0.01c0-4.14,0-7.6,0-11.81c2.35,0,4.15,0,5.96,0
					c5.99-0.01,12.03,0.36,17.96-0.23c1.99-0.2,4.91-2.56,5.33-4.41c0.73-3.23-1.9-5-5.21-5.14c-1.66-0.07-3.33-0.04-4.99-0.04
					c-6.28,0-12.56,0-18.95,0c-0.29-4.34-0.58-8.66-5.66-8.17c-5.02,0.49-4.52,4.87-4.5,8.56c0.03,6.94,0.01,13.88,0.01,21.24
					c-4.02,0-7.48-0.02-10.94,0c-11.73,0.1-19.02,7.61-19.06,19.61C352.99,232.19,360.1,239.86,371.92,239.93z M372.92,210
					c5.47-0.18,10.96-0.04,16.44-0.04c5.15,0.01,10.3-0.12,15.44,0.04c5.99,0.19,10.22,4.46,10.21,10.02
					c-0.01,5.57-4.25,9.91-10.22,9.99c-10.63,0.14-21.26,0.16-31.88-0.01c-5.88-0.09-10.08-4.66-9.95-10.25
					C363.07,214.42,367.24,210.18,372.92,210z"/>
			</g>
		</g>
	</g>
</g>
<g>
	<g>
		<path class="st3" d="M141.58,763.42v-13.52c11.35-15.02,17.69-34.88,19.03-59.59h16.03C175.64,722.69,163.95,747.06,141.58,763.42
			z"/>
		<path class="st3" d="M256.76,763.42c-22.37-16.35-34.05-40.73-35.05-73.11h15.52c1.67,25.04,8.18,44.91,19.53,59.59V763.42z"/>
		<rect x="271.43" y="762.41" class="st3" width="112.17" height="10.52"/>
		<rect x="282.01" y="688.04" class="st3" width="91" height="11.02"/>
		<g>
			<g>
				<polygon class="st3" points="560.87,694.36 637.77,694.36 637.77,684.01 608.68,684.01 608.68,670.7 590.94,670.7 
					590.94,684.01 560.87,684.01 				"/>
			</g>
			<g>
				<path class="st3" d="M547.69,669.71c-3.91,21.48-22.26,30.86-22.26,30.86v10.16c5.5-1.2,10.21-3.3,14.24-5.95v78.25h14.24
					v-93.12c6.43-10.23,8.24-20.2,8.24-20.2H547.69z"/>
			</g>
			<g>
				<path class="st3" d="M616.72,767.12c6.25-18.97,10.35-40.26,12.27-63.89H613.7c-0.96,22.39-4.11,43.68-9.42,63.89h-10.73
					c-5-19.28-8.15-40.57-9.43-63.89h-15.28c1.59,23.32,5.68,44.61,12.25,63.89h-22.61v11.99h81.67v-11.99H616.72z"/>
			</g>
		</g>
		<g>
			<g>
				<path class="st3" d="M513.12,699.55v-11.31h-52.38v-18.53h-16.76v51.76H408v57.67h73.45c12.48,0.32,18.56-5.75,18.24-18.24
					v-39.43h-38.94v-21.92H513.12z M483.91,732.32v28.1c0.32,6.25-2.46,9.2-8.38,8.87h-51.76v-36.97H483.91z"/>
			</g>
		</g>
		<path class="st3" d="M191.66,670.27v94.66c0,0-0.02,6.88-6.24,7.48c-0.25,0.01-0.5,0.02-0.77,0.02h-9.52v10.52h17.03
			c11.35,0,17.03-5.34,17.03-16.03v-96.65H191.66z"/>
	</g>
</g>
</svg>
